<svg height="512" viewBox="0 0 64 64" width="512" xmlns="http://www.w3.org/2000/svg"><g id="virus-covid19-corona-coronavirus-search"><path d="m18.241 39.654h6.21v6h-6.21z" fill="#ed1c24" transform="matrix(.707 -.707 .707 .707 -23.909 27.587)"/><path d="m54.51 40.61a22.005 22.005 0 1 1 0-31.12 22.012 22.012 0 0 1 0 31.12z" fill="#ffcd00"/><circle cx="39" cy="25" fill="#f1f2f2" r="18"/><path d="m39 7c-.506 0-1 .035-1.5.076a17.985 17.985 0 0 1 0 35.848c.5.041.994.076 1.5.076a18 18 0 0 0 0-36z" fill="#d9dada"/><path d="m38 14h2v5h-2z" fill="#ed1c24"/><path d="m31.99 16.49h2v5h-2z" fill="#ed1c24" transform="matrix(.707 -.707 .707 .707 -3.765 28.889)"/><path d="m29.5 22.5h2v5h-2z" fill="#ed1c24" transform="matrix(0 -1 1 0 5.5 55.5)"/><path d="m31.99 28.51h2v5h-2z" fill="#ed1c24" transform="matrix(-.707 -.707 .707 -.707 34.389 76.265)"/><path d="m38 31h2v5h-2z" fill="#ed1c24" transform="matrix(-1 0 0 -1 78 67)"/><path d="m44.01 28.51h2v5h-2z" fill="#ed1c24" transform="matrix(-.707 .707 -.707 -.707 98.765 21.111)"/><path d="m46.5 22.5h2v5h-2z" fill="#ed1c24" transform="matrix(0 1 -1 0 72.5 -22.5)"/><path d="m44.01 16.49h2v5h-2z" fill="#ed1c24" transform="matrix(.707 .707 -.707 .707 26.611 -26.265)"/><g fill="#ab2300"><circle cx="47.435" cy="16.565" r="2"/><circle cx="38.95" cy="13.05" r="2"/><circle cx="30.464" cy="16.565" r="2"/><circle cx="26.95" cy="25.05" r="2"/><circle cx="30.464" cy="33.535" r="2"/><circle cx="38.95" cy="37.05" r="2"/><circle cx="47.435" cy="33.535" r="2"/><circle cx="50.95" cy="25.05" r="2"/><path d="m39.657 22.929a1 1 0 1 0 -1.414 0 1 1 0 0 0 1.414 0z"/><path d="m36.828 27.172a1 1 0 1 0 -1.414 0 1 1 0 0 0 1.414 0z"/><path d="m42.485 27.172a1 1 0 1 0 -1.414 0 1 1 0 0 0 1.414 0z"/></g><path d="m12.2 58.87 10.486-10.485-5.657-5.657-1.414-1.414-10.485 10.486a5 5 0 0 0 7.07 7.07z" fill="#004fac"/><path d="m20.686 46.385-10.486 10.485a4.984 4.984 0 0 1 -5.91.839 4.932 4.932 0 0 0 7.91 1.161l10.486-10.485z" fill="#00479b"/><circle cx="39" cy="25" fill="#006838" r="7"/><path d="m39 18a7.014 7.014 0 0 0 -1 .08 6.991 6.991 0 0 1 0 13.84 7 7 0 1 0 1-13.92z" fill="#005e32"/><circle cx="39" cy="22" fill="#ab2300" r="2"/><circle cx="36" cy="26" fill="#ab2300" r="2"/><circle cx="42" cy="26" fill="#ab2300" r="2"/></g></svg>